<svg width="253" height="135" viewBox="0 0 253 135" fill="none" xmlns="http://www.w3.org/2000/svg">
    <path d="M47.0711 61.8929L38.5404 39.2518H36.0774L32.2088 61.8929H12.5925L23.5862 0H49.1832C52.5833 0 55.6607 0.379108 58.418 1.13732C61.1729 1.89554 63.5204 3.00244 65.4536 4.45803C67.3891 5.91596 68.8678 7.70854 69.8967 9.83575C70.921 11.963 71.4343 14.3968 71.4343 17.1348C71.4343 22.2644 70.217 26.4884 67.7846 29.8115C65.35 33.1345 62.0229 35.4068 57.8011 36.6308L69.9391 61.8953H47.0688L47.0711 61.8929ZM42.5856 26.4019C45.2816 26.4019 47.3937 25.9502 48.9195 25.0469C50.4429 24.1436 51.2058 22.702 51.2058 20.7199C51.2058 18.9133 50.5748 17.6753 49.3151 17.0061C48.053 16.3368 46.3388 15.9998 44.1702 15.9998H40.3887L38.5427 26.4019H42.5879H42.5856Z" fill="black"/>
    <path d="M179.624 61.8929L167.309 31.2086H166.956L162.117 61.8929H142.327L153.325 0H173.292L185.871 32.257H186.224L191.322 0H211.112L200.119 61.8929H179.624Z" fill="black"/>
    <path d="M34.4786 133.252L25.9478 110.611H23.4849L19.6163 133.252H0L10.996 71.3589H36.593C39.9931 71.3589 43.0729 71.738 45.8278 72.4962C48.5827 73.2544 50.9303 74.3613 52.8634 75.8169C54.7989 77.2749 56.2776 79.0674 57.3065 81.1946C58.3308 83.3219 58.8441 85.7556 58.8441 88.4936C58.8441 93.6233 57.6268 97.8473 55.1945 101.17C52.7598 104.493 49.4327 106.766 45.2109 107.99L57.3489 133.254H34.4786V133.252ZM29.993 97.7607C32.6891 97.7607 34.8012 97.3091 36.327 96.4058C37.8504 95.5025 38.6133 94.0609 38.6133 92.0788C38.6133 90.2722 37.9823 89.0342 36.7225 88.3649C35.4605 87.6957 33.7463 87.3587 31.5777 87.3587H27.7962L25.9502 97.7607H29.9954H29.993Z" fill="black"/>
    <path d="M170.726 89.8043C169.728 88.6389 168.44 87.6935 166.855 86.9633C165.273 86.2355 163.424 85.8705 161.315 85.8705C159.673 85.8705 158.192 86.2192 156.874 86.9189C155.555 87.6186 154.896 88.6974 154.896 90.153C154.896 91.3184 155.449 92.2217 156.561 92.8629C157.672 93.5041 159.306 94.1734 161.468 94.8731C164.154 95.7484 166.549 96.7382 168.652 97.8451C170.754 98.952 172.537 100.234 173.999 101.692C175.459 103.15 176.584 104.812 177.373 106.675C178.162 108.54 178.557 110.639 178.557 112.97C178.557 116.934 177.681 120.313 175.93 123.11C174.178 125.906 171.943 128.181 169.228 129.929C166.514 131.677 163.519 132.959 160.246 133.776C156.973 134.591 153.782 135 150.674 135C148.211 135 145.748 134.794 143.285 134.387C140.822 133.98 138.461 133.395 136.205 132.639C133.947 131.883 131.821 130.949 129.829 129.842C127.837 128.735 126.106 127.481 124.639 126.084L138.536 113.321C139.24 114.137 140.09 114.865 141.086 115.506C142.082 116.148 143.123 116.686 144.208 117.124C145.291 117.561 146.391 117.91 147.507 118.172C148.621 118.434 149.647 118.565 150.585 118.565C152.635 118.565 154.279 118.23 155.51 117.559C156.742 116.889 157.356 115.914 157.356 114.629C157.356 113.58 156.843 112.649 155.817 111.832C154.79 111.016 152.871 110.171 150.055 109.298C147.825 108.598 145.729 107.784 143.766 106.85C141.8 105.919 140.1 104.795 138.663 103.485C137.225 102.174 136.097 100.6 135.277 98.7648C134.456 96.9301 134.046 94.7 134.046 92.0766C134.046 88.8729 134.705 85.9009 136.024 83.1605C137.342 80.4225 139.219 78.0473 141.654 76.0371C144.086 74.0269 146.989 72.4519 150.361 71.3169C153.733 70.1796 158.117 69.6133 162.162 69.6133C164.39 69.6133 166.589 69.8028 168.76 70.1819C170.928 70.5611 172.306 71.0852 174.241 71.7545C176.177 72.4262 177.964 73.2265 179.608 74.1579C181.249 75.0916 182.626 76.14 183.742 77.3054L170.724 89.8067L170.726 89.8043Z" fill="black"/>
    <path d="M220.686 133.252L224.908 109.473H207.14L202.918 133.252H182.6L193.596 71.3589H213.827L210.045 92.6007H227.813L231.595 71.3589H252.002L241.006 133.252H220.688H220.686Z" fill="black"/>
    <path d="M233.29 59.7822C232.323 60.627 231.091 61.322 229.594 61.8813C228.096 62.436 226.304 62.7144 224.218 62.7144C222.678 62.7144 221.15 62.5342 219.638 62.1762C218.127 61.8135 216.775 61.2448 215.581 60.4632C214.385 59.6816 213.41 58.6589 212.655 57.3976C211.899 56.1362 211.522 54.6174 211.522 52.8459C211.522 51.8256 211.689 50.8685 212.021 49.9839C212.353 49.097 212.801 48.3013 213.359 47.5922C213.917 46.8878 214.583 46.256 215.355 45.699C216.128 45.1444 216.949 44.6857 217.825 44.3277C216.949 43.5461 216.208 42.6077 215.603 41.5101C214.997 40.4126 214.694 39.1723 214.694 37.7916C214.694 36.2283 215.049 34.9038 215.76 33.8226C216.471 32.7438 217.385 31.8639 218.503 31.1899C219.622 30.5113 220.863 30.0245 222.221 29.7226C223.58 29.4208 224.913 29.271 226.212 29.271C227.512 29.271 228.864 29.4278 230.18 29.7437C231.496 30.0596 232.683 30.5651 233.74 31.2555C234.8 31.9482 235.661 32.8398 236.325 33.9373C236.989 35.0348 237.324 36.3664 237.324 37.9273C237.324 38.9172 237.157 39.8135 236.825 40.6091C236.493 41.4048 236.038 42.1279 235.464 42.7738C234.889 43.4197 234.23 44.0071 233.49 44.5313C232.749 45.0555 231.955 45.5446 231.11 45.9939L233.333 48.0673L235.829 44.5102H247.121L239.41 53.8382L248.12 62.0873H235.511L233.288 59.7869L233.29 59.7822ZM223.493 49.7756C223.069 49.9254 222.669 50.1968 222.292 50.59C221.913 50.9785 221.724 51.5354 221.724 52.2562C221.724 52.7078 221.814 53.0846 221.995 53.3818C222.177 53.6837 222.417 53.9388 222.721 54.1494C223.024 54.3623 223.356 54.5121 223.719 54.601C224.081 54.6923 224.43 54.7368 224.762 54.7368C225.336 54.7368 225.873 54.6455 226.373 54.4653C226.872 54.2851 227.239 54.0628 227.484 53.7913L223.493 49.7779V49.7756ZM226.304 36.1628C225.61 36.1628 225.087 36.3758 224.738 36.7947C224.39 37.2159 224.216 37.698 224.216 38.2409C224.216 38.751 224.366 39.2308 224.67 39.6824C224.974 40.1341 225.381 40.5553 225.895 40.9438C226.589 40.6723 227.164 40.3049 227.618 39.8392C228.07 39.3735 228.296 38.8423 228.296 38.2409C228.296 37.6395 228.129 37.1433 227.797 36.7525C227.463 36.3641 226.966 36.1651 226.3 36.1651L226.304 36.1628Z" fill="black"/>
    <path d="M47.0711 61.8929L38.5403 39.2518H36.0774L32.2087 61.8929H12.5925L23.5862 0H49.1831C52.5832 0 55.6607 0.379108 58.4179 1.13732C61.1728 1.89554 63.5204 3.00244 65.4535 4.45803C67.389 5.91596 68.8677 7.70854 69.8967 9.83575C70.9209 11.963 71.4342 14.3968 71.4342 17.1348C71.4342 22.2644 70.2169 26.4884 67.7846 29.8115C65.3499 33.1345 62.0228 35.4068 57.801 36.6308L69.939 61.8953H47.0687L47.0711 61.8929ZM42.5855 26.4019C45.2815 26.4019 47.3936 25.9502 48.9194 25.0469C50.4429 24.1436 51.2058 22.702 51.2058 20.7199C51.2058 18.9133 50.5747 17.6753 49.315 17.0061C48.0529 16.3368 46.3388 15.9998 44.1702 15.9998H40.3887L38.5426 26.4019H42.5879H42.5855Z" fill="url(#paint0_linear_1_432)"/>
    <path d="M179.624 61.8929L167.309 31.2086H166.956L162.117 61.8929H142.327L153.325 0H173.292L185.871 32.257H186.224L191.322 0H211.112L200.118 61.8929H179.624Z" fill="url(#paint1_linear_1_432)"/>
    <path d="M34.4786 133.252L25.9478 110.611H23.4849L19.6163 133.252H0L10.996 71.3589H36.593C39.9931 71.3589 43.0729 71.7381 45.8278 72.4963C48.5827 73.2545 50.9303 74.3614 52.8634 75.817C54.7989 77.2749 56.2776 79.0675 57.3065 81.1947C58.3308 83.3219 58.8441 85.7557 58.8441 88.4937C58.8441 93.6234 57.6268 97.8474 55.1945 101.17C52.7598 104.493 49.4327 106.766 45.2109 107.99L57.3489 133.254H34.4786V133.252ZM29.993 97.7608C32.6891 97.7608 34.8012 97.3091 36.327 96.4058C37.8504 95.5025 38.6133 94.061 38.6133 92.0789C38.6133 90.2722 37.9822 89.0343 36.7225 88.365C35.4605 87.6957 33.7463 87.3587 31.5777 87.3587H27.7962L25.9502 97.7608H29.9954H29.993Z" fill="url(#paint2_linear_1_432)"/>
    <path d="M170.726 89.8042C169.728 88.6388 168.44 87.6933 166.855 86.9632C165.273 86.2354 163.424 85.8704 161.314 85.8704C159.673 85.8704 158.192 86.219 156.874 86.9188C155.555 87.6185 154.896 88.6973 154.896 90.1529C154.896 91.3183 155.449 92.2216 156.561 92.8628C157.672 93.504 159.306 94.1733 161.468 94.873C164.154 95.7482 166.549 96.7381 168.651 97.845C170.754 98.9519 172.537 100.234 173.999 101.692C175.459 103.15 176.584 104.812 177.373 106.675C178.162 108.54 178.557 110.639 178.557 112.97C178.557 116.934 177.681 120.313 175.93 123.11C174.178 125.906 171.943 128.181 169.228 129.929C166.513 131.677 163.518 132.959 160.245 133.776C156.973 134.59 153.782 135 150.674 135C148.211 135 145.748 134.794 143.285 134.387C140.822 133.98 138.461 133.395 136.205 132.639C133.947 131.883 131.821 130.949 129.829 129.842C127.837 128.735 126.106 127.481 124.639 126.084L138.536 113.321C139.24 114.137 140.09 114.865 141.086 115.506C142.082 116.148 143.123 116.686 144.208 117.123C145.291 117.561 146.391 117.91 147.507 118.172C148.621 118.434 149.647 118.565 150.585 118.565C152.635 118.565 154.279 118.23 155.51 117.559C156.742 116.889 157.356 115.914 157.356 114.629C157.356 113.58 156.843 112.649 155.816 111.832C154.79 111.016 152.871 110.171 150.055 109.298C147.825 108.598 145.729 107.784 143.766 106.85C141.799 105.919 140.099 104.795 138.663 103.485C137.224 102.174 136.097 100.599 135.277 98.7647C134.455 96.93 134.046 94.6998 134.046 92.0765C134.046 88.8728 134.705 85.9008 136.024 83.1604C137.342 80.4224 139.219 78.0471 141.653 76.0369C144.086 74.0267 146.989 72.4518 150.361 71.3168C153.733 70.1795 158.117 69.6132 162.162 69.6132C164.39 69.6132 166.589 69.8027 168.76 70.1818C170.928 70.5609 172.306 71.0851 174.241 71.7544C176.177 72.426 177.964 73.2264 179.607 74.1578C181.249 75.0915 182.626 76.1399 183.742 77.3053L170.723 89.8065L170.726 89.8042Z" fill="url(#paint3_linear_1_432)"/>
    <path d="M220.686 133.252L224.908 109.473H207.14L202.918 133.252H182.6L193.596 71.3589H213.827L210.046 92.6007H227.813L231.595 71.3589H252.002L241.006 133.252H220.686Z" fill="url(#paint4_linear_1_432)"/>
    <path d="M233.29 59.7821C232.322 60.6269 231.091 61.322 229.593 61.8813C228.096 62.4359 226.304 62.7144 224.218 62.7144C222.678 62.7144 221.15 62.5342 219.638 62.1761C218.127 61.8134 216.775 61.2447 215.581 60.4631C214.385 59.6815 213.41 58.6588 212.654 57.3975C211.899 56.1361 211.522 54.6174 211.522 52.8459C211.522 51.8255 211.689 50.8684 212.021 49.9838C212.353 49.0969 212.8 48.3012 213.358 47.5922C213.916 46.8878 214.583 46.2559 215.355 45.699C216.127 45.1443 216.949 44.6857 217.825 44.3276C216.949 43.546 216.208 42.6076 215.602 41.51C214.997 40.4125 214.694 39.1722 214.694 37.7915C214.694 36.2283 215.049 34.9037 215.76 33.8226C216.471 32.7438 217.385 31.8638 218.503 31.1899C219.622 30.5112 220.863 30.0245 222.221 29.7226C223.58 29.4207 224.913 29.2709 226.212 29.2709C227.512 29.2709 228.864 29.4277 230.18 29.7437C231.496 30.0596 232.683 30.5651 233.74 31.2554C234.8 31.9481 235.661 32.8397 236.325 33.9372C236.989 35.0348 237.324 36.3663 237.324 37.9272C237.324 38.9171 237.157 39.8134 236.825 40.6091C236.493 41.4047 236.038 42.1279 235.464 42.7737C234.889 43.4196 234.23 44.007 233.49 44.5312C232.749 45.0554 231.955 45.5445 231.11 45.9938L233.333 48.0672L235.829 44.5102H247.121L239.41 53.8381L248.12 62.0872H235.511L233.288 59.7868L233.29 59.7821ZM223.493 49.7755C223.069 49.9253 222.669 50.1968 222.292 50.5899C221.913 50.9784 221.724 51.5354 221.724 52.2561C221.724 52.7078 221.814 53.0846 221.995 53.3818C222.176 53.6836 222.417 53.9387 222.72 54.1493C223.024 54.3623 223.356 54.5121 223.719 54.601C224.081 54.6923 224.43 54.7367 224.762 54.7367C225.336 54.7367 225.873 54.6455 226.372 54.4653C226.872 54.2851 227.239 54.0627 227.484 53.7913L223.493 49.7779V49.7755ZM226.304 36.1628C225.609 36.1628 225.087 36.3757 224.738 36.7946C224.39 37.2158 224.216 37.6979 224.216 38.2408C224.216 38.751 224.366 39.2307 224.67 39.6824C224.974 40.134 225.381 40.5553 225.894 40.9437C226.589 40.6723 227.164 40.3049 227.618 39.8392C228.07 39.3735 228.296 38.8423 228.296 38.2408C228.296 37.6394 228.129 37.1433 227.797 36.7525C227.463 36.364 226.966 36.1651 226.299 36.1651L226.304 36.1628Z" fill="url(#paint5_linear_1_432)"/>
    <path d="M121.357 43.8033C121.397 43.8384 121.434 43.7705 121.472 43.6582C121.39 43.7284 121.335 43.7846 121.357 43.8033Z" fill="black"/>
    <path d="M130.295 0H117.46C117.462 0.243378 117.453 0.486756 117.441 0.709073C117.41 1.20987 117.448 1.3807 117.307 1.8698C117.165 2.35656 116.989 2.67248 116.862 3.04925C116.735 3.42602 116.29 4.35506 116.205 4.59844C116.12 4.84182 115.647 6.01893 115.618 6.26699C115.59 6.51505 115.614 6.79821 115.614 6.79821C115.614 6.79821 115.936 6.69524 116.118 6.82629C116.299 6.95968 116.671 7.19604 116.699 7.53536C116.727 7.87469 116.711 7.81618 116.603 8.36378C116.494 8.91139 116.278 9.08222 116.111 9.31624C115.943 9.55025 115.814 9.70236 115.55 10.037C115.286 10.3717 115.018 10.7601 114.889 10.8865C114.761 11.0129 114.592 11.2726 114.258 11.2352C113.923 11.1977 113.629 11.0807 113.629 11.0807C113.629 11.0807 113.384 11.977 113.071 12.7516C113.071 12.7516 112.955 13.2711 112.882 13.4022C112.812 13.5332 112.687 13.8843 112.673 13.9942C112.661 14.1042 112.64 14.2704 112.64 14.2704C112.64 14.2704 113.473 14.3663 113.669 14.3874C113.862 14.4085 114.366 14.6916 114.493 14.818C114.62 14.9444 115.192 15.3445 115.261 15.492C115.329 15.6394 115.268 16.1636 115.567 16.2549C115.866 16.3438 117.862 17.8321 118.14 18.1153C118.418 18.3985 120.252 19.5873 120.968 19.723C121.684 19.8611 122.941 20.2004 123.455 20.6216C123.968 21.0452 124.331 21.3377 124.566 21.7285C124.801 22.1193 126.271 24.05 126.826 25.0914C127.382 26.1351 128.538 27.1039 129.037 28.1406C129.537 29.1773 130.153 30.1976 131.046 31.0003C131.938 31.8006 132.4 32.4418 132.868 32.7741C133.337 33.1065 133.582 33.9185 133.582 33.9185L131.267 35.9217C131.267 35.9217 132.181 38.0115 132.506 38.6082C132.831 39.2049 133.695 41.737 133.627 42.3174C133.561 42.8977 133.247 43.1692 133.123 43.5202C132.998 43.8689 132.701 44.255 132.195 44.7301C131.689 45.2052 129.786 46.3308 129.518 46.4688C129.249 46.6069 126.631 47.8191 126.257 47.8893C125.882 47.9595 123.9 48.5446 123.431 48.7154C122.96 48.8862 122.091 49.0945 122.091 49.0945L121.783 50.3114C121.783 50.3114 122.072 50.4916 122.136 51.3926C122.202 52.2959 122.143 53.0447 122.202 53.2741C122.261 53.5058 122.96 55.0105 122.692 56.3514C122.423 57.6923 121.969 56.9973 122.421 58.9513C122.873 60.9054 122.93 62.843 123.036 63.386C123.141 63.9289 123.643 64.4624 123.619 64.6824C123.594 64.9024 122.977 64.638 122.447 65.333C121.917 66.028 121.865 66.7231 120.94 66.9243C120.015 67.1279 118.903 67.2519 118.903 67.2519C118.903 67.2519 118.856 71.0805 118.821 71.3847C118.785 71.6889 118.771 72.5548 118.628 73.0696C118.484 73.5844 118.435 76.629 118.331 77.5136C118.23 78.3982 117.966 79.374 117.907 79.8912C117.848 80.4061 117.434 81.4053 117.394 81.7353C117.354 82.0652 117.349 82.7743 117.297 83.2166C117.246 83.6589 116.753 84.6839 116.753 84.6839C116.753 84.6839 115.969 85.3041 115.71 85.2736C115.451 85.2432 114.173 85.9195 114.173 85.9195C114.173 85.9195 113.466 89.1232 113.377 89.8955C113.287 90.6677 113.033 91.5734 112.97 92.1257C112.906 92.6779 112.678 94.3301 112.581 95.1772C112.484 96.0244 112.576 96.5205 111.981 97.7959C111.383 99.0713 110.349 100.223 109.828 100.836C109.308 101.449 109.091 102.02 108.604 102.338C108.117 102.656 106.697 103.576 105.92 103.487C105.143 103.398 103.928 103.185 103.356 102.598C102.786 102.011 102.338 101.662 102.042 100.957C101.747 100.253 101.199 99.1462 101.284 98.409C101.368 97.6719 101.161 95.5587 101.293 94.4167C101.425 93.2747 101.931 90.8315 102.011 90.4688C102.091 90.1037 102.233 89.8604 102.334 88.9758C102.435 88.0912 102.251 86.4297 102.228 85.978C102.204 85.5287 101.891 83.364 101.919 83.1066C101.95 82.8492 101.995 81.8078 101.995 81.8078C101.995 81.8078 100.561 84.4803 100.5 85.6668C100.438 86.8532 99.4729 88.3861 99.2257 90.2231C98.9761 92.0601 98.5475 94.8098 98.3921 95.5025C98.2367 96.1929 97.4621 97.3747 97.276 98.0252C97.0877 98.6758 96.233 99.9208 96.3295 100.379C96.426 100.838 96.7015 104.004 96.7039 105.273C96.7086 106.543 96.7557 108.413 96.7557 108.413C96.7557 108.413 96.4708 111.217 95.9198 112.422C95.3688 113.627 95.2888 113.992 95.1263 114.757C94.9638 115.523 94.3775 117.023 94.1303 118.188C93.883 119.354 93.6641 120.933 93.5581 121.855C93.4522 122.775 93.4922 124.72 93.4616 124.979C93.431 125.237 93.245 125.887 93.3674 126.126C93.4898 126.365 93.9019 126.374 93.8972 126.746C93.8925 127.118 93.9184 127.867 93.9184 127.867L93.8948 128.724C93.8948 128.724 94.3139 129.33 94.3328 129.819C94.3516 130.306 94.3916 130.61 94.3375 131.087C94.2833 131.567 94.2198 132.119 94.0243 132.508C93.8289 132.896 93.5769 133.128 93.5558 133.313C93.5346 133.498 93.3674 134.298 93.3674 134.298L93.3109 134.792C97.236 134.663 100.761 134.09 103.885 133.072C107.462 131.906 110.525 130.275 113.078 128.176C115.63 126.079 117.681 123.528 119.235 120.526C120.789 117.526 121.886 114.189 122.534 110.517L129.308 71.3543L134.432 42.3197C134.7 41.2947 134.936 40.244 135.126 39.1605L141.889 0H130.292H130.295Z" fill="url(#paint6_linear_1_432)"/>
    <path d="M82.9789 133.495C83.066 133.392 83.2167 133.374 83.1413 133.065C83.0636 132.758 82.7858 132.241 83.0095 131.93C83.2332 131.618 83.6711 131.071 84.3116 130.734C84.952 130.397 85.9739 129.99 86.1764 129.863C86.3789 129.737 86.5084 129.267 86.612 129.018C86.7156 128.768 86.7792 128.553 86.944 128.422C87.1088 128.291 87.3302 127.682 87.3302 127.682C87.3302 127.682 87.203 127.481 87.5044 127.142C87.8058 126.805 87.9023 126.627 87.9235 126.444C87.9447 126.259 87.8505 125.129 87.973 125.031C88.0978 124.933 88.7312 124.633 88.7312 124.633C88.7312 124.633 88.5193 122.557 88.2555 120.287C87.9918 118.017 87.721 114.816 87.6198 113.424C87.5162 112.031 87.4856 108.706 87.4244 106.312C87.3608 103.918 87.8976 101.552 88.3097 99.9208C88.7217 98.2873 89.1715 97.3325 89.2256 96.8528C89.2798 96.373 89.7319 93.1038 89.8378 92.1841C89.9438 91.2645 90.5348 90.6958 90.1251 89.6801C89.7154 88.6645 88.8748 86.5162 88.8465 85.1309C88.8183 83.7478 88.6017 83.013 88.6535 82.5707C88.7053 82.1284 88.6864 79.9988 88.6864 79.9988L88.5357 79.6829C88.5357 79.6829 88.1614 79.3413 88.1755 79.2313C88.1873 79.1213 88.006 78.0916 88.0648 77.5768C88.1237 77.0619 88.1873 75.2038 88.3521 74.4386C88.5145 73.6734 88.8018 73.1468 88.75 72.6179C88.6982 72.0891 88.4604 71.8761 88.6794 70.6311C88.8983 69.3862 88.8913 69.1264 88.8418 68.8971C88.7924 68.6677 88.7453 68.4384 88.9384 68.0499C89.1338 67.6615 89.4069 67.2449 89.1644 66.7324C88.9242 66.2199 88.4392 65.8665 88.5687 65.0615C88.6982 64.2542 89.4846 64.2705 89.2704 63.5357C89.0538 62.8009 88.3379 62.4967 88.7147 61.8297C89.0914 61.1628 89.374 60.3367 89.4611 59.2649C89.5482 58.1931 90.257 56.5948 90.669 55.2983C91.0811 54.0019 91.4696 53.5619 91.6556 53.246C91.8416 52.9324 92.2843 52.682 92.4609 52.4433C92.6398 52.2023 92.5621 51.5587 92.6139 51.1164C92.6657 50.6741 92.8564 50.3231 93.0801 48.706C93.3038 47.089 93.4263 46.3565 93.6099 45.4087C93.7936 44.4586 93.9772 42.5397 94.0267 42.4344C94.0761 42.3291 94.2928 41.4211 94.241 41.2268C94.1892 41.0349 94.4741 39.5372 94.4152 39.3804C94.3587 39.2236 94.0173 38.9241 94.248 38.5403C94.4811 38.1565 94.022 38.2174 94.2881 37.5364C94.5541 36.8577 94.8696 36.0738 94.8673 35.7742C94.8649 35.4747 94.8131 34.9458 94.8461 34.6533C94.8791 34.3584 94.8532 33.6096 94.7755 33.303C94.6978 32.9964 94.4034 32.2897 94.2433 32.0487C94.0832 31.8076 93.7112 30.7943 93.7112 30.7943C93.7112 30.7943 92.4232 31.8778 92.037 32.2827C91.6532 32.6875 90.9563 33.2047 90.6737 33.3592C90.3935 33.5136 89.9226 33.6845 89.7978 33.7827C89.673 33.881 89.1432 33.9325 89.1432 33.9325C89.1432 33.9325 88.7665 34.2625 88.3168 34.9201C87.867 35.5777 87.0406 36.2306 86.904 36.4388C86.7674 36.6471 86.6191 36.9654 86.6191 36.9654C86.6191 36.9654 87.1159 37.2088 87.4102 37.279C87.7022 37.3492 88.2343 37.2977 88.5122 37.4779C88.7924 37.6581 89.0067 37.7587 88.9596 38.1635C88.9125 38.5684 88.8371 38.896 88.6229 39.1324C88.4086 39.3687 88.4533 39.6355 87.7728 39.6706L87.0924 39.7057C87.0924 39.7057 86.9652 40.4756 87.0147 40.705C87.0641 40.9343 87.1018 41.5732 87.0806 41.7581C87.0594 41.9429 87.0924 42.3197 86.9864 42.5678C86.8828 42.8182 86.5108 43.4477 86.2824 43.457C86.0563 43.4687 85.8656 43.4851 85.6984 43.3166C85.5289 43.1481 85.4818 42.5841 85.3499 42.418C85.2181 42.2542 84.7566 41.0443 84.7566 41.0443C84.7566 41.0443 84.3798 41.7113 84.5729 41.9944C84.766 42.2776 84.912 42.6309 85.1286 43.0288C85.3452 43.4266 85.6796 43.794 85.7455 44.1965C85.8115 44.599 85.9621 44.915 85.7078 45.1841C85.4512 45.4532 84.9497 45.5819 84.9497 45.5819C84.8131 45.7902 84.6177 46.5133 84.6177 46.5133C84.6177 46.5133 83.7841 46.9041 83.6217 46.3635C83.4592 45.8229 83.3038 45.5445 83.3038 45.5445C83.3038 45.5445 82.9836 46.3752 82.0817 45.4064C81.1799 44.4376 80.9539 44.4376 80.8385 43.9789C80.7231 43.5179 80.6384 43.0335 80.6266 42.6403C80.6148 42.2472 80.8573 41.3789 80.8008 41.1215C80.7467 40.8641 80.7514 40.3329 80.6101 40.0919C80.4688 39.8532 79.3998 38.8633 79.3268 38.5193C79.2539 38.1753 79.235 36.3827 79.235 36.3827C79.235 36.3827 79.5011 34.5667 80.0709 33.764C80.6407 32.9613 80.8291 32.5635 81.3848 32.1236C81.9428 31.6836 83.0707 30.6914 83.2991 30.4105C83.5275 30.1297 83.6287 29.7483 83.6405 29.6383C83.6523 29.5283 83.9466 29.4207 84.2127 28.8356C84.4764 28.2506 85.211 27.0173 85.503 26.4369C85.795 25.8542 86.3083 25.55 86.3695 25.0235C86.4307 24.4993 86.6073 23.9306 86.7674 23.7808C86.9252 23.6311 87.1018 23.8183 87.1912 23.2683C87.2831 22.7184 87.495 22.1006 87.7187 21.6209C87.9424 21.1435 88.9031 20.1325 89.447 19.5779C89.9885 19.0233 90.6973 18.4897 91.1117 18.0872C91.5237 17.687 90.9775 17.2892 92.1477 17.1698C93.3156 17.0505 94.7543 16.5427 95.1663 16.3929C95.5784 16.2431 96.8828 15.9155 97.1725 15.8383C97.4644 15.7587 97.9542 15.6464 98.3403 15.4685C98.7265 15.2883 99.3929 15.1409 99.8661 14.942C100.339 14.7431 100.716 14.6471 100.789 14.5161C100.86 14.385 101.373 13.6034 101.373 13.6034L102.119 13.4934L102.536 13.5402L102.809 11.165C102.809 11.165 102.204 10.0604 102.369 8.62352C102.369 8.62352 101.905 8.48779 101.51 8.0221C101.112 7.5564 101.029 6.81925 101.107 6.38164C101.187 5.94402 101.083 5.37068 101.164 4.90498C101.246 4.43929 101.418 3.92679 101.418 3.92679C101.418 3.92679 101.882 3.55938 102.277 3.80042L102.543 3.94317C102.543 3.94317 102.666 4.09762 102.685 3.93147C102.703 3.76532 102.597 2.96966 102.616 2.80351C102.635 2.64204 102.567 1.36898 103.005 0.00231934H84.5447L71.9522 71.3613L65.3569 109.738C65.2392 110.613 65.1215 111.589 65.0037 112.668C64.886 113.747 64.8271 114.692 64.8271 115.509C64.8271 118.539 65.4723 121.249 66.7626 123.638C68.0506 126.028 69.8707 128.054 72.2159 129.714C74.5611 131.375 77.3749 132.641 80.6596 133.516C81.3659 133.704 82.0888 133.867 82.8282 134.015C82.8682 133.816 82.9294 133.558 82.9812 133.5L82.9789 133.495Z" fill="url(#paint7_linear_1_432)"/>
    <path d="M121.663 43.0265C121.594 43.1599 121.536 43.4688 121.472 43.6583C121.832 43.3471 122.981 42.6286 123.29 42.3431C123.667 41.9944 124.78 40.8899 125.166 40.7097C125.553 40.5295 126.052 40.3633 125.955 40.2112C125.859 40.0615 125.637 39.3079 125.538 39.1839C125.44 39.0599 125.265 38.8727 125.265 38.8727L124.677 39.0856C124.677 39.0856 124.241 39.205 124.21 38.7252C124.182 38.2455 123.954 37.52 123.787 37.2767C123.617 37.0333 122.546 36.0715 122.546 36.0715L122.018 36.0106C122.153 36.3055 122.122 36.3289 121.983 37.5458C121.844 38.7603 122.07 40.4663 121.858 41.0865C121.646 41.7066 121.773 42.8112 121.663 43.0241V43.0265Z" fill="url(#paint8_linear_1_432)"/>
    <defs>
        <linearGradient id="paint0_linear_1_432" x1="73.9234" y1="0.0370895" x2="137.62" y2="176.235" gradientUnits="userSpaceOnUse">
            <stop stop-color="#54E3F5"/>
            <stop offset="1" stop-color="#08A3CA"/>
        </linearGradient>
        <linearGradient id="paint1_linear_1_432" x1="73.9234" y1="0.0370895" x2="137.62" y2="176.235" gradientUnits="userSpaceOnUse">
            <stop stop-color="#54E3F5"/>
            <stop offset="1" stop-color="#08A3CA"/>
        </linearGradient>
        <linearGradient id="paint2_linear_1_432" x1="73.9234" y1="0.0370895" x2="137.62" y2="176.235" gradientUnits="userSpaceOnUse">
            <stop stop-color="#54E3F5"/>
            <stop offset="1" stop-color="#08A3CA"/>
        </linearGradient>
        <linearGradient id="paint3_linear_1_432" x1="73.9234" y1="0.0370895" x2="137.62" y2="176.235" gradientUnits="userSpaceOnUse">
            <stop stop-color="#54E3F5"/>
            <stop offset="1" stop-color="#08A3CA"/>
        </linearGradient>
        <linearGradient id="paint4_linear_1_432" x1="73.9234" y1="0.0370895" x2="137.62" y2="176.235" gradientUnits="userSpaceOnUse">
            <stop stop-color="#54E3F5"/>
            <stop offset="1" stop-color="#08A3CA"/>
        </linearGradient>
        <linearGradient id="paint5_linear_1_432" x1="73.9234" y1="0.0370895" x2="137.62" y2="176.235" gradientUnits="userSpaceOnUse">
            <stop stop-color="#54E3F5"/>
            <stop offset="1" stop-color="#08A3CA"/>
        </linearGradient>
        <linearGradient id="paint6_linear_1_432" x1="87.4328" y1="0.0370323" x2="185.54" y2="83.1544" gradientUnits="userSpaceOnUse">
            <stop stop-color="#54E3F5"/>
            <stop offset="1" stop-color="#08A3CA"/>
        </linearGradient>
        <linearGradient id="paint7_linear_1_432" x1="87.4328" y1="0.0370323" x2="185.54" y2="83.1544" gradientUnits="userSpaceOnUse">
            <stop stop-color="#54E3F5"/>
            <stop offset="1" stop-color="#08A3CA"/>
        </linearGradient>
        <linearGradient id="paint8_linear_1_432" x1="87.4328" y1="0.0370323" x2="185.54" y2="83.1544" gradientUnits="userSpaceOnUse">
            <stop stop-color="#54E3F5"/>
            <stop offset="1" stop-color="#08A3CA"/>
        </linearGradient>
    </defs>
</svg>